REM DIRINDEX 1\3,1\2\4,1\2\5,1\2\6
REM DIRNAME folder01,folder02,folder03,folder04,folder05,folder06
TITLE ""
FILE "131.mp3" MP3
  TRACK 01 AUDIO
    TITLE "4:cjc137_5485"
    INDEX 01 00:00:00
  TRACK 02 AUDIO
    TITLE "0:"
    INDEX 01 00:01:15
  TRACK 03 AUDIO
    TITLE "6:cjc137_5486"
    INDEX 01 00:01:24
  TRACK 04 AUDIO
    TITLE "0:"
    INDEX 01 00:02:55
  TRACK 05 AUDIO
    TITLE "5:cjc137_5487"
    INDEX 01 00:02:63
  TRACK 06 AUDIO
    TITLE "0:"
    INDEX 01 00:04:01
  TRACK 07 AUDIO
    TITLE "4:cjc137_5488"
    INDEX 01 00:05:10
  TRACK 08 AUDIO
    TITLE "0:"
    INDEX 01 00:06:47
  TRACK 09 AUDIO
    TITLE "6:cjc137_5489"
    INDEX 01 00:06:53
  TRACK 10 AUDIO
    TITLE "0:"
    INDEX 01 00:08:05
  TRACK 11 AUDIO
    TITLE "5:cjc137_5490"
    INDEX 01 00:08:11
  TRACK 12 AUDIO
    TITLE "0:"
    INDEX 01 00:09:45
  TRACK 13 AUDIO
    TITLE "4:cjc137_5491"
    INDEX 01 00:10:55
  TRACK 14 AUDIO
    TITLE "0:"
    INDEX 01 00:11:72
  TRACK 15 AUDIO
    TITLE "6:cjc137_5492"
    INDEX 01 00:12:07
  TRACK 16 AUDIO
    TITLE "0:"
    INDEX 01 00:13:14
  TRACK 17 AUDIO
    TITLE "5:cjc137_5493"
    INDEX 01 00:13:20
  TRACK 18 AUDIO
    TITLE "0:"
    INDEX 01 00:14:37
  TRACK 19 AUDIO
    TITLE "4:cjc137_5494"
    INDEX 01 00:15:48
  TRACK 20 AUDIO
    TITLE "0:"
    INDEX 01 00:16:57
  TRACK 21 AUDIO
    TITLE "6:cjc137_5495"
    INDEX 01 00:16:63
  TRACK 22 AUDIO
    TITLE "0:"
    INDEX 01 00:17:70
  TRACK 23 AUDIO
    TITLE "5:cjc137_5496"
    INDEX 01 00:18:01
  TRACK 24 AUDIO
    TITLE "0:"
    INDEX 01 00:19:09
  TRACK 25 AUDIO
    TITLE "4:cjc137_5497"
    INDEX 01 00:20:18
  TRACK 26 AUDIO
    TITLE "0:"
    INDEX 01 00:21:41
  TRACK 27 AUDIO
    TITLE "6:cjc137_5498"
    INDEX 01 00:21:43
  TRACK 28 AUDIO
    TITLE "0:"
    INDEX 01 00:23:10
  TRACK 29 AUDIO
    TITLE "5:cjc137_5499"
    INDEX 01 00:23:14
  TRACK 30 AUDIO
    TITLE "0:"
    INDEX 01 00:24:37
  TRACK 31 AUDIO
    TITLE "4:cjc137_5500"
    INDEX 01 00:25:45
  TRACK 32 AUDIO
    TITLE "0:"
    INDEX 01 00:26:67
  TRACK 33 AUDIO
    TITLE "6:cjc137_5501"
    INDEX 01 00:26:73
  TRACK 34 AUDIO
    TITLE "0:"
    INDEX 01 00:28:39
  TRACK 35 AUDIO
    TITLE "5:cjc137_5502"
    INDEX 01 00:28:45
  TRACK 36 AUDIO
    TITLE "0:"
    INDEX 01 00:29:68
  TRACK 37 AUDIO
    TITLE "4:cjc137_5503"
    INDEX 01 00:31:04
  TRACK 38 AUDIO
    TITLE "0:"
    INDEX 01 00:32:27
  TRACK 39 AUDIO
    TITLE "6:cjc137_5504"
    INDEX 01 00:32:31
  TRACK 40 AUDIO
    TITLE "0:"
    INDEX 01 00:33:42
  TRACK 41 AUDIO
    TITLE "5:cjc137_5505"
    INDEX 01 00:33:48
  TRACK 42 AUDIO
    TITLE "0:"
    INDEX 01 00:34:71
  TRACK 43 AUDIO
    TITLE "4:cjc137_5506"
    INDEX 01 00:36:03
  TRACK 44 AUDIO
    TITLE "0:"
    INDEX 01 00:37:16
  TRACK 45 AUDIO
    TITLE "6:cjc137_5507"
    INDEX 01 00:37:22
  TRACK 46 AUDIO
    TITLE "0:"
    INDEX 01 00:38:43
  TRACK 47 AUDIO
    TITLE "5:cjc137_5508"
    INDEX 01 00:38:51
  TRACK 48 AUDIO
    TITLE "0:"
    INDEX 01 00:39:66
  TRACK 49 AUDIO
    TITLE "4:cjc137_5509"
    INDEX 01 00:40:72
  TRACK 50 AUDIO
    TITLE "0:"
    INDEX 01 00:42:00
  TRACK 51 AUDIO
    TITLE "6:cjc137_5510"
    INDEX 01 00:42:08
  TRACK 52 AUDIO
    TITLE "0:"
    INDEX 01 00:42:68
  TRACK 53 AUDIO
    TITLE "5:cjc137_5511"
    INDEX 01 00:42:72
  TRACK 54 AUDIO
    TITLE "0:"
    INDEX 01 00:43:74
  TRACK 55 AUDIO
    TITLE "4:cjc137_5512"
    INDEX 01 00:45:10
  TRACK 56 AUDIO
    TITLE "0:"
    INDEX 01 00:46:15
  TRACK 57 AUDIO
    TITLE "6:cjc137_5513"
    INDEX 01 00:46:19
  TRACK 58 AUDIO
    TITLE "0:"
    INDEX 01 00:47:28
  TRACK 59 AUDIO
    TITLE "5:cjc137_5514"
    INDEX 01 00:47:36
  TRACK 60 AUDIO
    TITLE "0:"
    INDEX 01 00:48:40
  TRACK 61 AUDIO
    TITLE "4:cjc137_5515"
    INDEX 01 00:49:47
  TRACK 62 AUDIO
    TITLE "0:"
    INDEX 01 00:50:56
  TRACK 63 AUDIO
    TITLE "6:cjc137_5516"
    INDEX 01 00:50:60
  TRACK 64 AUDIO
    TITLE "0:"
    INDEX 01 00:51:67
  TRACK 65 AUDIO
    TITLE "5:cjc137_5517"
    INDEX 01 00:51:73
  TRACK 66 AUDIO
    TITLE "0:"
    INDEX 01 00:53:06
  TRACK 67 AUDIO
    TITLE "4:cjc137_5518"
    INDEX 01 00:54:13
  TRACK 68 AUDIO
    TITLE "0:"
    INDEX 01 00:55:24
  TRACK 69 AUDIO
    TITLE "6:cjc137_5519"
    INDEX 01 00:55:34
  TRACK 70 AUDIO
    TITLE "0:"
    INDEX 01 00:56:49
  TRACK 71 AUDIO
    TITLE "5:cjc137_5520"
    INDEX 01 00:56:53
  TRACK 72 AUDIO
    TITLE "0:"
    INDEX 01 00:57:64
  TRACK 73 AUDIO
    TITLE "4:cjc137_5521"
    INDEX 01 00:59:00
  TRACK 74 AUDIO
    TITLE "0:"
    INDEX 01 01:00:00
  TRACK 75 AUDIO
    TITLE "6:cjc137_5522"
    INDEX 01 01:00:08
  TRACK 76 AUDIO
    TITLE "0:"
    INDEX 01 01:00:74
  TRACK 77 AUDIO
    TITLE "5:cjc137_5523"
    INDEX 01 01:01:05
  TRACK 78 AUDIO
    TITLE "0:"
    INDEX 01 01:02:06
  TRACK 79 AUDIO
    TITLE "4:cjc137_5524"
    INDEX 01 01:03:14
  TRACK 80 AUDIO
    TITLE "0:"
    INDEX 01 01:04:35
  TRACK 81 AUDIO
    TITLE "6:cjc137_5525"
    INDEX 01 01:04:43
  TRACK 82 AUDIO
    TITLE "0:"
    INDEX 01 01:05:66
  TRACK 83 AUDIO
    TITLE "5:cjc137_5526"
    INDEX 01 01:05:71
  TRACK 84 AUDIO
    TITLE "0:"
    INDEX 01 01:07:15
  TRACK 85 AUDIO
    TITLE "4:cjc137_5527"
    INDEX 01 01:08:29
  TRACK 86 AUDIO
    TITLE "0:"
    INDEX 01 01:09:38
  TRACK 87 AUDIO
    TITLE "6:cjc137_5528"
    INDEX 01 01:09:42
  TRACK 88 AUDIO
    TITLE "0:"
    INDEX 01 01:10:24
  TRACK 89 AUDIO
    TITLE "5:cjc137_5529"
    INDEX 01 01:10:31
  TRACK 90 AUDIO
    TITLE "0:"
    INDEX 01 01:11:39
  TRACK 91 AUDIO
    TITLE "4:cjc137_5530"
    INDEX 01 01:12:48
  TRACK 92 AUDIO
    TITLE "0:"
    INDEX 01 01:13:53
  TRACK 93 AUDIO
    TITLE "6:cjc137_5531"
    INDEX 01 01:13:57
  TRACK 94 AUDIO
    TITLE "0:"
    INDEX 01 01:14:70
  TRACK 95 AUDIO
    TITLE "5:cjc137_5532"
    INDEX 01 01:14:74
  TRACK 96 AUDIO
    TITLE "0:"
    INDEX 01 01:16:05
  TRACK 97 AUDIO
    TITLE "4:cjc137_5533"
    INDEX 01 01:17:12
  TRACK 98 AUDIO
    TITLE "0:"
    INDEX 01 01:18:39
  TRACK 99 AUDIO
    TITLE "6:cjc137_5534"
    INDEX 01 01:18:47
  TRACK 100 AUDIO
    TITLE "0:"
    INDEX 01 01:20:10
  TRACK 101 AUDIO
    TITLE "5:cjc137_5535"
    INDEX 01 01:20:16
  TRACK 102 AUDIO
    TITLE "0:"
    INDEX 01 01:21:45
  TRACK 103 AUDIO
    TITLE "4:cjc137_5536"
    INDEX 01 01:22:50
  TRACK 104 AUDIO
    TITLE "0:"
    INDEX 01 01:24:08
  TRACK 105 AUDIO
    TITLE "6:cjc137_5537"
    INDEX 01 01:24:10
  TRACK 106 AUDIO
    TITLE "0:"
    INDEX 01 01:25:45
  TRACK 107 AUDIO
    TITLE "5:cjc137_5538"
    INDEX 01 01:25:53
  TRACK 108 AUDIO
    TITLE "0:"
    INDEX 01 01:27:12
  TRACK 109 AUDIO
    TITLE "4:cjc137_5539"
    INDEX 01 01:28:20
  TRACK 110 AUDIO
    TITLE "0:"
    INDEX 01 01:29:29
  TRACK 111 AUDIO
    TITLE "6:cjc137_5540"
    INDEX 01 01:29:33
  TRACK 112 AUDIO
    TITLE "0:"
    INDEX 01 01:30:22
  TRACK 113 AUDIO
    TITLE "5:cjc137_5541"
    INDEX 01 01:30:30
  TRACK 114 AUDIO
    TITLE "0:"
    INDEX 01 01:31:39
  TRACK 115 AUDIO
    TITLE "4:cjc137_5542"
    INDEX 01 01:32:45
  TRACK 116 AUDIO
    TITLE "0:"
    INDEX 01 01:33:56
  TRACK 117 AUDIO
    TITLE "6:cjc137_5543"
    INDEX 01 01:33:64
  TRACK 118 AUDIO
    TITLE "0:"
    INDEX 01 01:35:10
  TRACK 119 AUDIO
    TITLE "5:cjc137_5544"
    INDEX 01 01:35:14
  TRACK 120 AUDIO
    TITLE "0:"
    INDEX 01 01:36:23
